<svg id="Normal_Horizontal" data-name="Normal Horizontal" xmlns="http://www.w3.org/2000/svg" viewBox="0 0 335.61 79.27"><defs><style>.cls-1{fill:#09212a;}.cls-1,.cls-2,.cls-3,.cls-4,.cls-5,.cls-6,.cls-7{fill-rule:evenodd;}.cls-2{fill:#3498db;}.cls-3{fill:#2977ab;}.cls-4{fill:#fff;}.cls-5{fill:#4e8faa;}.cls-6{fill:#73c8ec;}.cls-7{fill:#6b809b;}</style></defs><title>Lumeo [Converted]</title><polygon class="cls-1" points="36.17 79.27 29.34 79.27 26.43 79.27 26.43 76.36 26.43 62.47 32.25 62.47 32.25 73.45 36.17 73.45 36.17 79.27"/><polygon class="cls-1" points="51.54 79.27 44.71 79.27 41.8 79.27 41.8 76.36 41.8 62.47 47.62 62.47 47.62 73.45 51.54 73.45 51.54 79.27"/><path class="cls-2" d="M-189.95-25a32.23,32.23,0,0,1-32.23-32.24,32.23,32.23,0,0,1,32.23-32.23,32.23,32.23,0,0,1,32.23,32.23A32.23,32.23,0,0,1-189.95-25Z" transform="translate(230.39 92.38)"/><path class="cls-3" d="M-189.95-25a32.12,32.12,0,0,1-16.91-4.79,16.57,16.57,0,0,1,.59-3.08,44.44,44.44,0,0,0,32.64,0,16.57,16.57,0,0,1,.59,3.08A32.15,32.15,0,0,1-189.95-25Z" transform="translate(230.39 92.38)"/><path class="cls-4" d="M-207.22-84.46a32.09,32.09,0,0,1,17.27-5,32.09,32.09,0,0,1,17.27,5,17.76,17.76,0,0,1-.95,2.86,41.83,41.83,0,0,0-32.64,0A17.76,17.76,0,0,1-207.22-84.46Z" transform="translate(230.39 92.38)"/><path class="cls-1" d="M-189.95-22.09A35,35,0,0,1-214.8-32.38h0a35,35,0,0,1-10.3-24.84,35.05,35.05,0,0,1,10.3-24.86,35,35,0,0,1,24.85-10.29A35,35,0,0,1-165.1-82.09a35.05,35.05,0,0,1,10.3,24.86,35,35,0,0,1-10.3,24.84h0a35,35,0,0,1-24.85,10.29Zm-20.74-14.4h0a29.19,29.19,0,0,0,20.73,8.59,29.23,29.23,0,0,0,20.74-8.59h0a29.28,29.28,0,0,0,8.58-20.74A29.27,29.27,0,0,0-169.21-78a29.23,29.23,0,0,0-20.74-8.59A29.19,29.19,0,0,0-210.68-78a29.23,29.23,0,0,0-8.59,20.74A29.28,29.28,0,0,0-210.69-36.49Z" transform="translate(230.39 92.38)"/><path class="cls-5" d="M-227.48-57.24a31.32,31.32,0,0,1,6.8-19.36c23.61-4,37.85-4,61.46,0a31.32,31.32,0,0,1,6.8,19.36,31.33,31.33,0,0,1-6.8,19.37c-23.61,4-37.85,4-61.46,0A31.33,31.33,0,0,1-227.48-57.24Z" transform="translate(230.39 92.38)"/><path class="cls-6" d="M-156.07-71.77a30.86,30.86,0,0,1,3.65,14.54,31.26,31.26,0,0,1-6.8,19.36c-23.2,4-37.34,4-60.22.21.09-1,.21-1.92.37-2.89q-7.55-18.44,2.31-30.62,19.22-5.31,55.93-2.76A46.67,46.67,0,0,1-156.07-71.77Z" transform="translate(230.39 92.38)"/><path class="cls-1" d="M-230.39-57.23a33.65,33.65,0,0,1,1.9-11.12,35.43,35.43,0,0,1,5.52-10l.7-.89,1.1-.19c12-2,21.59-3.07,31.22-3.07s19.24,1,31.22,3.07l1.1.19.7.89a35.43,35.43,0,0,1,5.52,10,33.65,33.65,0,0,1,1.9,11.12,33.63,33.63,0,0,1-1.9,11.11,35.43,35.43,0,0,1-5.52,10l-.7.89-1.1.19c-12,2-21.59,3.07-31.22,3.07s-19.24-1-31.22-3.07l-1.1-.19-.7-.89a35.43,35.43,0,0,1-5.52-10,33.63,33.63,0,0,1-1.9-11.11Zm7.38-9.21a27.83,27.83,0,0,0-1.56,9.21A27.81,27.81,0,0,0-223-48a29.43,29.43,0,0,0,3.94,7.48,172.67,172.67,0,0,0,29.12,2.79,172.67,172.67,0,0,0,29.12-2.79A29.43,29.43,0,0,0-156.89-48a27.81,27.81,0,0,0,1.56-9.2,27.83,27.83,0,0,0-1.56-9.21,29.49,29.49,0,0,0-3.94-7.49,173.62,173.62,0,0,0-29.12-2.78,173.62,173.62,0,0,0-29.12,2.78A29.49,29.49,0,0,0-223-66.44Z" transform="translate(230.39 92.38)"/><path class="cls-1" d="M-174.75-46.7a11.92,11.92,0,0,1-11.92-11.92,11.93,11.93,0,0,1,11.92-11.93,11.93,11.93,0,0,1,11.93,11.93A11.93,11.93,0,0,1-174.75-46.7Z" transform="translate(230.39 92.38)"/><path class="cls-4" d="M-176.82-56.14a5.26,5.26,0,0,1-5.25-5.25,5.25,5.25,0,0,1,5.25-5.25,5.25,5.25,0,0,1,5.25,5.25A5.26,5.26,0,0,1-176.82-56.14Z" transform="translate(230.39 92.38)"/><path class="cls-4" d="M-169.13-52.25A1.72,1.72,0,0,1-170.86-54a1.73,1.73,0,0,1,1.73-1.73A1.74,1.74,0,0,1-167.4-54,1.73,1.73,0,0,1-169.13-52.25Z" transform="translate(230.39 92.38)"/><path class="cls-4" d="M-189.95-76.71a159.31,159.31,0,0,0-23.47,1.89l-3.94.61-1.71.28A29.49,29.49,0,0,0-223-66.44a27.83,27.83,0,0,0-1.56,9.21A27.81,27.81,0,0,0-223-48a29.43,29.43,0,0,0,3.94,7.48q-4-9.84-3.09-17.92a24.31,24.31,0,0,1,5.4-12.7l1.18-.31q17.72-4.56,49.51-2.77c1.2.06,2.41.14,3.64.22l1.6.1-1.71-.28-3.94-.61A159.21,159.21,0,0,0-189.95-76.71Z" transform="translate(230.39 92.38)"/><path class="cls-7" d="M-189.95-37.76a157.94,157.94,0,0,0,23.47-1.9l3.94-.6,1.71-.29A29.43,29.43,0,0,0-156.89-48a27.83,27.83,0,0,0,1.56-9.21,27.81,27.81,0,0,0-1.56-9.2,29.49,29.49,0,0,0-3.94-7.49q4,9.86,3.09,17.93a24.26,24.26,0,0,1-5.4,12.7l-1.18.31q-17.72,4.55-49.51,2.77c-1.2-.06-2.41-.14-3.64-.22l-1.6-.11,1.71.29,3.94.6A158,158,0,0,0-189.95-37.76Z" transform="translate(230.39 92.38)"/><path class="cls-1" d="M-126.23-71.76V-34.1h26.44v-6.55h-19.35V-71.76Zm66.25.1v21.55c0,6.45-3.34,10.37-9.19,10.37s-9.73-3.6-9.73-10.37V-71.66h-7v21.55c0,11.34,7.69,16.82,16.71,16.82,9.46,0,16.28-5.7,16.28-16.82V-71.66ZM-2.07-34.1H5V-71.66H-3.09L-14.86-55.51-26.62-71.66h-8.17V-34.1h7.09V-61.4l12,16.36h1.4L-2.07-61.35V-34.1Zm53.89-7H30.7v-8.49H51.07v-6.61H30.7v-8.71H51.82v-6.87H23.66V-34.1H51.82v-7ZM86.09-72.46c-10.91,0-19.5,7.95-19.5,19.82,0,9.89,6.12,19.4,19.34,19.4S105.11-43,105.22-52.69,98.93-72.35,86.09-72.46ZM73.57-52.53C73.36-60,78.09-66,86.09-66c8.65.16,12.25,7.14,12.14,13.43S94.8-39.74,85.93-39.74,73.73-46.35,73.57-52.53Z" transform="translate(230.39 92.38)"/></svg>